<svg width="64px" height="64px" viewBox="1 1 190 190" xmlns="http://www.w3.org/2000/svg" xmlns:xlink="http://www.w3.org/1999/xlink" fill="#000000"><g id="SVGRepo_bgCarrier" stroke-width="0"></g><g id="SVGRepo_tracerCarrier" stroke-linecap="round" stroke-linejoin="round"></g><g id="SVGRepo_iconCarrier"> <clipPath id="c"> <circle cx="96" cy="96" r="88"></circle> </clipPath> <linearGradient id="d" x1="110.87" x2="52.54" y1="164.5" y2="130.33" gradientUnits="userSpaceOnUse"> <stop offset="0" stop-color="#1a237e" stop-opacity=".4"></stop> <stop offset=".33" stop-color="#1a237e" stop-opacity="0"></stop> </linearGradient> <linearGradient id="e" x1="30.43" x2="86.54" y1="74.4" y2="41.61" gradientUnits="userSpaceOnUse"> <stop offset="0" stop-color="#1a237e" stop-opacity=".2"></stop> <stop offset=".66" stop-color="#1a237e" stop-opacity="0"></stop> </linearGradient> <linearGradient id="f" x1="118.57" x2="54.58" y1="169.11" y2="131.57" gradientUnits="userSpaceOnUse"> <stop offset="0" stop-color="#1a237e" stop-opacity=".2"></stop> <stop offset=".33" stop-color="#1a237e" stop-opacity="0"></stop> </linearGradient> <clipPath id="g"> <use xlink:href="#R"></use> </clipPath> <linearGradient id="a" gradientUnits="userSpaceOnUse"> <stop offset="0" stop-color="#1a237e" stop-opacity=".3"></stop> <stop offset=".66" stop-color="#1a237e" stop-opacity="0"></stop> </linearGradient> <linearGradient id="h" x1="121.86" x2="136.55" y1="49.8" y2="114.13" xlink:href="#a"></linearGradient> <linearGradient id="i" x1="121.87" x2="136.29" y1="50.07" y2="113.01" xlink:href="#a"></linearGradient> <clipPath id="j"> <use xlink:href="#S"></use> </clipPath> <linearGradient id="k" x1="29.34" x2="81.84" y1="75.02" y2="44.35" gradientUnits="userSpaceOnUse"> <stop offset="0" stop-color="#1a237e" stop-opacity=".6"></stop> <stop offset=".66" stop-color="#1a237e" stop-opacity="0"></stop> </linearGradient> <linearGradient id="b" gradientUnits="userSpaceOnUse"> <stop offset="0" stop-color="#1a237e" stop-opacity=".2"></stop> <stop offset="1" stop-color="#1a237e" stop-opacity="0"></stop> </linearGradient> <radialGradient id="l" cx="92.18" cy="55.95" r="84.08" xlink:href="#b"></radialGradient> <clipPath id="n"> <path d="M61.36 116L96 56h88V8H21.97v40.34"></path> </clipPath> <linearGradient id="m" x1="8" x2="130.65" y1="104.24" y2="104.24" gradientUnits="userSpaceOnUse"> <stop offset="0" stop-color="#f4b400" stop-opacity=".4"></stop> <stop offset=".09" stop-color="#f2a700" stop-opacity=".3"></stop> <stop offset=".22" stop-color="#f19800" stop-opacity=".13"></stop> <stop offset=".33" stop-color="#f09300" stop-opacity="0"></stop> </linearGradient> <radialGradient id="o" cx="21.87" cy="48.52" r="78.04" xlink:href="#b"></radialGradient> <radialGradient id="p" cx="95.84" cy="96.14" r="87.87" xlink:href="#b"></radialGradient> <radialGradient id="q" cx="34.29" cy="32.01" r="176.75" gradientUnits="userSpaceOnUse"> <stop offset="0" stop-color="#ffffff" stop-opacity=".1"></stop> <stop offset="1" stop-color="#ffffff" stop-opacity="0"></stop> </radialGradient> <g clip-path="url(#c)"> <use fill="#5e97f6" xlink:href="#R"></use> <use fill="url(#d)" xlink:href="#R"></use> <use fill="#3367d6" xlink:href="#T"></use> <use fill="url(#e)" xlink:href="#T"></use> <path fill="#1a237e" fill-opacity=".15" d="M62.3 115.65l-39.83-68.3-.58 1 39.54 67.8z"></path> <use fill="#5e97f6" xlink:href="#R"></use> <use fill="url(#f)" xlink:href="#R"></use> <path fill="#1a237e" fill-opacity=".15" d="M129.84 117.33l-.83-.48L90.62 184h1.15l38.1-66.64z"></path> <g clip-path="url(#g)"> <use fill="#a1c2fa" xlink:href="#S"></use> <use fill="url(#h)" xlink:href="#S"></use> </g> <use fill="#a1c2fa" xlink:href="#S"></use> <use fill="url(#i)" xlink:href="#S"></use> <g clip-path="url(#j)"> <use fill="#3367d6" xlink:href="#T"></use> <use fill="url(#k)" xlink:href="#T"></use> </g> <path fill="url(#l)" d="M96 56v20.95L174.4 56z"></path> <use fill="url(#m)" clip-path="url(#n)" xlink:href="#R"></use> <path fill="url(#o)" d="M21.97 48.45l57.25 57.24L61.36 116z"></path> <path fill="url(#p)" d="M91.83 183.9l20.96-78.2 17.86 10.3z"></path> <circle cx="96" cy="96" r="40" fill="#f5f5f5"></circle> <circle cx="96" cy="96" r="32" fill="#4285f4"></circle> <path fill="#1a237e" fill-opacity=".2" d="M96 55a40 40 0 00-40 40v1a40 40 0 0140-40h88v-1z"></path> <path fill="#ffffff" fill-opacity=".1" d="M130.6 116A39.96 39.96 0 0196 136a39.97 39.97 0 01-34.61-20h-.04L8 24.48v1L61.36 117h.04a39.94 39.94 0 0069.21 0h.05v-1z"></path> <path fill="#1a237e" d="M97 56c-.17 0-.33.02-.5.03a39.98 39.98 0 010 79.94c.17 0 .33.03.5.03a40 40 0 000-80z" opacity=".1"></path> <path fill="#ffffff" fill-opacity=".2" d="M131 117.33a39.72 39.72 0 003.5-32.05 39.72 39.72 0 01-3.87 30.69l.02.04-38.87 68h1.16l38.1-66.64zM96 9a88 88 0 0187.99 87.5l.01-.5A88 88 0 008 96v.5A88 88 0 0196 9z"></path> <path fill="#1a237e" fill-opacity=".15" d="M96 183a88 88 0 0087.99-87.5l.01.5A88 88 0 018 96l.01-.5A88 88 0 0096 183z"></path> </g> <circle cx="96" cy="96" r="88" fill="url(#q)"></circle> <defs> <path id="R" d="M8 184h83.77l38.88-38.88V116H61.36L8 24.48z"></path> <path id="S" d="M96 56l34.65 60-38.88 68H184V56z"></path> <path id="T" d="M21.97 8v108h39.4L96 56h88V8z"></path> </defs> </g></svg>