<svg viewBox="-51.2 -51.2 614.40 614.40" version="1.1" xmlns="http://www.w3.org/2000/svg" xmlns:xlink="http://www.w3.org/1999/xlink" preserveAspectRatio="xMidYMid" fill="#000" stroke="#000" stroke-width="0.00512" transform="rotate(0)"><g id="SVGRepo_bgCarrier" stroke-width="0" transform="translate(0,0), scale(1)"><rect x="-51.2" y="-51.2" width="614.40" height="614.40" rx="61.44" fill="#000" strokewidth="0"></rect></g><g id="SVGRepo_tracerCarrier" stroke-linecap="round" stroke-linejoin="round" stroke="#CCCCCC" stroke-width="8.192"></g><g id="SVGRepo_iconCarrier"> <g> <path d="M0,0 L43.1807229,0 L43.1807229,135.710843 L0,135.710843 L0,0 Z M246.746988,0 L172.722892,0 L172.722892,43.1807229 L203.566265,43.1807229 L203.566265,135.710843 L246.746988,135.710843 L246.746988,43.1807229 L277.590361,43.1807229 L277.590361,0 L246.746988,0 Z M363.951807,0 L289.927711,0 L289.927711,43.1807229 L320.771084,43.1807229 L320.771084,135.710843 L363.951807,135.710843 L363.951807,43.1807229 L394.795181,43.1807229 L394.795181,0 L363.951807,0 Z M481.156627,0 L407.13253,0 L407.13253,43.1807229 L437.975904,43.1807229 L437.975904,135.710843 L481.156627,135.710843 L481.156627,43.1807229 L512,43.1807229 L512,0 L481.156627,0 Z M160.385542,43.1807229 L160.385542,0 L61.686747,0 L61.686747,135.710843 L104.86747,135.710843 L104.86747,98.6987952 L141.879518,98.6987952 L141.879518,55.5180723 L104.86747,55.5180723 L104.86747,43.1807229 L160.385542,43.1807229 Z" fill="#fff" fill-rule="nonzero"> </path> </g> </g></svg>