<svg fill="#000000" width="175px" height="175px" viewBox="-2.4 -2.4 28.80 28.80" id="notification-bell" data-name="Flat Line" xmlns="http://www.w3.org/2000/svg" class="icon flat-line"><g id="SVGRepo_bgCarrier" stroke-width="0"></g><g id="SVGRepo_tracerCarrier" stroke-linecap="round" stroke-linejoin="round"></g><g id="SVGRepo_iconCarrier"><path id="secondary" d="M19.38,14.38a2.12,2.12,0,0,1,.62,1.5h0A2.12,2.12,0,0,1,17.88,18H6.12A2.12,2.12,0,0,1,4,15.88H4a2.12,2.12,0,0,1,.62-1.5L6,13V9a6,6,0,0,1,6-6h0a6,6,0,0,1,6,6v4Z" style="fill: #6ee7b7; stroke-width:1.56;"></path><path id="primary" d="M12,21h0a3,3,0,0,1-3-3h6A3,3,0,0,1,12,21Zm6-8V9a6,6,0,0,0-6-6h0A6,6,0,0,0,6,9v4L4.62,14.38A2.12,2.12,0,0,0,4,15.88H4A2.12,2.12,0,0,0,6.12,18H17.88A2.12,2.12,0,0,0,20,15.88h0a2.12,2.12,0,0,0-.62-1.5Z" style="fill: none; stroke: #000000; stroke-linecap: round; stroke-linejoin: round; stroke-width:1.56;"></path></g></svg>